<svg xmlns="http://www.w3.org/2000/svg" xmlns:xlink="http://www.w3.org/1999/xlink" width="2000" zoomAndPan="magnify" viewBox="0 0 1500 1499.999933" height="2000" preserveAspectRatio="xMidYMid meet" version="1.0"><defs><g/><clipPath id="54d7d853f0"><path d="M 126.589844 110.605469 L 1373.089844 110.605469 L 1373.089844 1389.351562 L 126.589844 1389.351562 Z M 126.589844 110.605469 " clip-rule="nonzero"/></clipPath><clipPath id="8d3128fa9c"><path d="M 236.710938 417.140625 L 1263.460938 417.140625 L 1263.460938 1097.390625 L 236.710938 1097.390625 Z M 236.710938 417.140625 " clip-rule="nonzero"/></clipPath><clipPath id="f55c13a7d5"><path d="M 776 587.074219 L 897 587.074219 L 897 664 L 776 664 Z M 776 587.074219 " clip-rule="nonzero"/></clipPath><clipPath id="a895e0163f"><path d="M 776 695 L 899 695 L 899 759.574219 L 776 759.574219 Z M 776 695 " clip-rule="nonzero"/></clipPath><clipPath id="abcc04325b"><path d="M 752.15625 641 L 905.15625 641 L 905.15625 724 L 752.15625 724 Z M 752.15625 641 " clip-rule="nonzero"/></clipPath><clipPath id="3197675d28"><rect x="0" width="180" y="0" height="343"/></clipPath><clipPath id="ad3a0b1f5a"><rect x="0" width="386" y="0" height="354"/></clipPath></defs><rect x="-150" width="1800" fill="#ffffff" y="-149.999993" height="1799.99992" fill-opacity="1"/><rect x="-150" width="1800" fill="#ffffff" y="-149.999993" height="1799.99992" fill-opacity="1"/><g clip-path="url(#54d7d853f0)"><path fill="#0c844a" d="M 1372.648438 695.5 C 1376.125 708.878906 1366.84375 714 1348.511719 713.789062 C 1283.808594 713.039062 1219.082031 712.851562 1154.386719 713.855469 C 1135.515625 714.144531 1131.621094 706.683594 1129.738281 688.683594 C 1123.105469 624.917969 1114.410156 561.335938 1105.816406 497.820312 C 1101.117188 463.117188 1107.460938 462.894531 1130.355469 459.351562 C 1176.84375 452.167969 1222.894531 441.5625 1268.734375 430.609375 C 1282.363281 427.355469 1290.277344 427.003906 1297.796875 441.285156 C 1338.617188 518.671875 1362.601562 601.179688 1372.648438 695.5 Z M 247.191406 713.246094 C 281.109375 713.246094 315.042969 712.839844 348.957031 713.429688 C 364.324219 713.695312 368.816406 707.316406 370.421875 691.621094 C 377.492188 622.390625 385.523438 553.230469 394.960938 484.296875 C 397.300781 467.15625 392.433594 462.945312 377.503906 460.5 C 336.539062 453.78125 295.71875 446.167969 255.039062 437.65625 C 207.6875 427.660156 207.242188 426.746094 186.109375 471.894531 C 155.035156 538.28125 134.164062 607.863281 128.824219 681.726562 C 126.535156 713 127.019531 713.199219 158.550781 713.429688 C 188.09375 713.648438 217.640625 713.476562 247.191406 713.476562 Z M 145.761719 792.105469 C 133.660156 792.105469 125.203125 792.769531 126.765625 810.519531 C 134.410156 898.230469 158.636719 980.507812 199.023438 1057.972656 C 204.515625 1068.503906 209.5625 1076.941406 223.855469 1073.890625 C 276.300781 1062.65625 328.804688 1051.625 381.53125 1041.875 C 397.707031 1038.882812 395.949219 1031.015625 394.316406 1018.261719 C 385.601562 950.222656 377.019531 882.132812 370.664062 813.835938 C 368.914062 795.046875 362.042969 791.5625 346.355469 791.949219 C 313.492188 792.703125 280.59375 792.179688 247.707031 792.171875 C 213.722656 792.140625 179.742188 792.199219 145.761719 792.105469 Z M 1150.292969 792.105469 C 1139.90625 792.105469 1131.96875 792.769531 1130.308594 807.5625 C 1122.523438 876.734375 1113.648438 945.773438 1104.734375 1014.800781 C 1102.742188 1029.960938 1103.519531 1039.71875 1122.21875 1043.023438 C 1172.785156 1051.945312 1223.035156 1062.980469 1273.269531 1073.691406 C 1284.707031 1076.125 1291.949219 1072.777344 1297.445312 1062.382812 C 1338.183594 985.316406 1363.375 903.417969 1371.519531 815.90625 C 1373.152344 798.363281 1368.296875 791.316406 1350.566406 791.828125 C 1317.761719 792.769531 1284.90625 792.101562 1252.078125 792.105469 Z M 689.488281 713.75 C 706 714.121094 712.742188 709.105469 712.449219 690.824219 C 711.492188 631.070312 711.621094 571.285156 712.347656 511.53125 C 712.554688 494.84375 708.703125 488.269531 690.792969 487.453125 C 625.296875 484.46875 559.863281 479.746094 494.464844 474.738281 C 478.976562 473.550781 472.40625 479.277344 470.585938 494.4375 C 462.597656 560.261719 454.402344 626.058594 446 691.828125 C 444.011719 707.785156 450.03125 714.105469 466.089844 713.714844 C 503.3125 712.871094 540.5625 713.449219 577.796875 713.449219 C 615.035156 713.449219 652.269531 712.914062 689.488281 713.75 Z M 919.128906 713.382812 C 956.367188 713.382812 993.636719 712.535156 1030.832031 713.726562 C 1050.300781 714.351562 1056.300781 706.253906 1054.101562 687.660156 C 1051.710938 667.53125 1050.9375 647.203125 1048.128906 627.132812 C 1041.863281 582.621094 1034.796875 538.253906 1027.980469 493.8125 C 1025.71875 479.078125 1018.15625 473.578125 1002.902344 474.773438 C 938.605469 479.8125 874.261719 484.628906 809.851562 487.375 C 791.609375 488.144531 787.675781 495.109375 787.777344 511.378906 C 788.140625 571.144531 788.234375 630.917969 787.523438 690.679688 C 787.3125 708.402344 793.773438 714.359375 810.738281 713.894531 C 846.859375 712.925781 883.035156 713.597656 919.15625 713.597656 Z M 576.046875 792.148438 C 539.945312 792.148438 503.832031 792.808594 467.753906 791.863281 C 450.363281 791.410156 444.035156 798.070312 446.246094 815.574219 C 454.097656 877.921875 461.710938 940.320312 469.082031 1002.773438 C 471.335938 1022.167969 479.515625 1028.644531 499.300781 1026.972656 C 563.523438 1021.519531 627.894531 1017.796875 692.257812 1014.367188 C 708.019531 1013.539062 712.496094 1007.199219 712.324219 991.652344 C 711.660156 933.085938 711.359375 874.5 712.527344 815.945312 C 712.925781 795.847656 705.363281 791.210938 687.628906 791.722656 C 650.484375 792.785156 613.25 792.046875 576.054688 792.046875 Z M 923.003906 792.148438 C 884.667969 792.148438 846.324219 792.425781 807.988281 791.996094 C 794.761719 791.84375 787.722656 795.648438 787.835938 810.957031 C 788.277344 871.859375 788.296875 932.765625 787.894531 993.675781 C 787.824219 1007.605469 792.757812 1013.757812 806.867188 1014.554688 C 871.308594 1018.167969 935.753906 1021.984375 1000.097656 1027.089844 C 1019.960938 1028.667969 1027.574219 1021.121094 1029.941406 1001.652344 C 1037.472656 939.152344 1046.027344 876.78125 1054.21875 814.367188 C 1056.621094 796.066406 1048.082031 791.296875 1031.460938 791.761719 C 995.339844 792.769531 959.164062 792.074219 923.023438 792.074219 Z M 712.125 1107.433594 C 712.125 1095.03125 705.796875 1091.878906 695.609375 1092.5625 C 634.515625 1096.6875 573.433594 1100.984375 512.328125 1104.933594 C 500.183594 1105.714844 496.925781 1111.566406 500.957031 1122.589844 C 531.632812 1206.4375 568.578125 1286.523438 635.238281 1347.359375 C 656.382812 1366.660156 680.339844 1382.339844 712.003906 1389.144531 C 712.003906 1293.84375 711.898438 1200.621094 712.125 1107.433594 Z M 528.253906 400.957031 C 581.792969 404.105469 635.410156 405.898438 688.921875 409.425781 C 708.484375 410.71875 712.582031 402.460938 712.402344 384.148438 C 711.621094 302.976562 712.097656 221.789062 711.957031 140.609375 C 711.957031 132.238281 710.875 123.875 709.96875 110.867188 C 586.546875 166.953125 540.003906 277.257812 496.539062 393.542969 C 509.296875 396.632812 518.699219 400.398438 528.253906 400.957031 Z M 787.738281 390.34375 C 787.628906 408.796875 797.527344 410.015625 810.953125 409.308594 C 864.578125 406.46875 918.230469 404.09375 971.835938 400.898438 C 981.210938 400.339844 990.40625 396.664062 1002.21875 393.828125 C 958.648438 277.183594 912.207031 166.484375 787.980469 111.019531 C 787.980469 207.738281 788.273438 299.046875 787.742188 390.34375 Z M 810.242188 1092.261719 C 788.558594 1090.414062 787.636719 1101.925781 787.691406 1118.5625 C 788.089844 1200.945312 787.828125 1283.332031 787.980469 1365.71875 C 787.980469 1372.136719 789.429688 1378.550781 790.210938 1385.042969 C 870.882812 1370.804688 975.261719 1231.957031 999.597656 1105.542969 C 934.632812 1101.132812 872.371094 1097.554688 810.25 1092.261719 Z M 499.273438 1300.113281 C 473.59375 1246.765625 449.566406 1192.542969 426.070312 1138.121094 C 420.046875 1124.195312 415.058594 1115.359375 397.851562 1118.886719 C 351.980469 1128.371094 305.832031 1136.4375 255.367188 1145.894531 C 331.199219 1245.53125 423.613281 1313.4375 538.101562 1358.644531 C 523.269531 1336.660156 508.707031 1319.707031 499.273438 1300.113281 Z M 962.742188 1351.703125 C 970.082031 1350.933594 978.539062 1352.367188 984.582031 1349.050781 C 1026.050781 1326.425781 1068.398438 1305.035156 1107.796875 1278.96875 C 1159.320312 1244.882812 1202.585938 1200.773438 1242.328125 1146.3125 C 1195.628906 1136.929688 1153.066406 1128.09375 1110.398438 1119.894531 C 1082.582031 1114.550781 1081.214844 1115.863281 1071.007812 1144.914062 C 1044.808594 1219.359375 1012.757812 1290.613281 963.554688 1352.453125 Z M 1207.625 1171.511719 L 1208.003906 1169.953125 L 1209.570312 1168.957031 L 1208.285156 1169.089844 Z M 1025.625 251.023438 C 1043.425781 287.046875 1057.628906 325.070312 1071.628906 362.917969 C 1077.664062 379.226562 1085.019531 386.796875 1102.632812 383.320312 C 1131.628906 377.5625 1161 373.714844 1190.011719 368.066406 C 1206.359375 364.882812 1222.34375 359.699219 1239.753906 355.089844 C 1184.167969 272.050781 1075.265625 190.128906 965.359375 147.773438 C 986.519531 183.628906 1008.375 216.128906 1025.625 251.039062 Z M 536.730469 148.011719 C 456.5 172.949219 389.019531 220.089844 327.558594 277.019531 C 302.800781 299.902344 277.667969 323.070312 258.179688 358.140625 C 304.648438 366.765625 347.425781 374.347656 390.039062 382.777344 C 410.839844 386.894531 421.578125 379.320312 428.398438 358.300781 C 453.164062 281.992188 487.976562 210.816406 536.570312 147.296875 Z M 536.730469 148.011719 L 537.304688 146.101562 L 536.570312 147.308594 Z M 962.742188 1351.714844 L 963.578125 1352.472656 Z M 962.742188 1351.714844 " fill-opacity="1" fill-rule="nonzero"/></g><g clip-path="url(#8d3128fa9c)"><path fill="#ffffff" d="M 1207.207031 664.539062 C 1198.328125 663.355469 1192.503906 656.144531 1178.46875 654.171875 C 1154.410156 654.097656 1151.929688 660.988281 1123.542969 656.644531 C 1080.101562 649.996094 1081.847656 661.777344 1065.679688 681.554688 C 1002.570312 758.730469 1014.769531 820.425781 943.921875 854.179688 C 940.925781 855.605469 932.042969 857.546875 933.527344 875.359375 C 935.011719 893.175781 928.582031 924.84375 924.128906 939.6875 L 923.890625 940.476562 C 919.585938 954.800781 917.300781 962.402344 927.097656 1002.53125 C 936.085938 1039.363281 942.433594 1046.011719 949.457031 1053.035156 C 959.410156 1062.988281 966.882812 1069.46875 962.949219 1080.773438 C 961.25 1085.652344 923.050781 1084.832031 919.671875 1083.683594 C 915.6875 1082.332031 907.039062 1073.226562 906.523438 1070.652344 C 906.039062 1068.226562 904.96875 1053.230469 903.574219 1049.101562 C 902.785156 1046.757812 895.855469 1047.746094 892.027344 1045.789062 C 887.003906 1043.21875 887.015625 1031.726562 889.488281 1020.839844 C 891.964844 1009.953125 883.992188 960.542969 880.824219 950.058594 C 870.875 917.144531 871.171875 878.601562 868.933594 880.878906 C 868.933594 888.300781 844.804688 947.808594 835.128906 961.9375 C 827.527344 973.042969 830.859375 1024.792969 835.554688 1045.085938 C 842.480469 1055.148438 855.484375 1072.785156 856.027344 1075.601562 C 856.570312 1078.421875 855.195312 1083.882812 851.386719 1085.664062 C 847.578125 1087.445312 812.996094 1084.230469 809.035156 1083.734375 C 805.078125 1083.242188 797.945312 1071.3125 797.945312 1064.878906 C 797.945312 1058.449219 798.683594 1044.453125 795.230469 1044.699219 C 783.011719 1045.566406 783.296875 1036.410156 783.480469 1034.800781 C 783.664062 1033.195312 797.609375 987.90625 797.945312 964.429688 C 798.335938 937.046875 796.582031 886.789062 801.011719 858.128906 L 801.027344 858.046875 C 801.859375 852.878906 803.90625 840.1875 801.542969 834.675781 C 798.082031 833.191406 755.886719 834.785156 711.351562 845.671875 C 666.816406 856.558594 647.578125 857.472656 621.785156 856.558594 C 595.992188 855.640625 534.984375 830.519531 511.4375 826.371094 C 505.929688 841.28125 477.058594 865.675781 439.6875 885.753906 C 437.339844 887.015625 439.234375 898.050781 440.609375 916.367188 C 443.761719 958.300781 471.359375 1010.945312 474.820312 1020.839844 C 478.285156 1030.738281 503.949219 1058.925781 508.046875 1064.109375 C 512.148438 1069.292969 508.257812 1078.664062 507.445312 1079.515625 C 506.628906 1080.363281 483.535156 1084.230469 467.398438 1085.167969 C 459.175781 1083.519531 451.609375 1075.515625 449.570312 1067.804688 C 447.535156 1060.09375 443.289062 1046.699219 441.078125 1047.808594 C 436.339844 1050.175781 432.207031 1049.027344 430.957031 1048.226562 C 427.777344 1046.199219 423.65625 1042.417969 424.609375 1025.613281 C 425.640625 1007.484375 378.558594 885.035156 376.085938 879.078125 C 373.613281 873.117188 378.382812 862.160156 381.550781 849.886719 C 376.105469 853.847656 360.3125 876.46875 346.675781 911.152344 C 328.617188 957.089844 329.246094 1015.996094 339.734375 1049.542969 C 344.226562 1063.914062 357.535156 1071.71875 361.269531 1078.6875 C 362.855469 1081.640625 363.484375 1089.621094 361.503906 1091.601562 C 355.152344 1097.957031 344.554688 1097.042969 335.566406 1097.042969 L 316.476562 1097.042969 C 315.488281 1097.042969 307.074219 1089.128906 305.09375 1086.652344 C 300.050781 1080.347656 302.953125 1060.96875 299.398438 1058.191406 C 293.046875 1053.230469 287.15625 1055.722656 286.292969 1043.601562 C 285.796875 1036.675781 289.753906 1026.285156 293.21875 990.160156 C 296.683594 954.039062 287.617188 881.191406 289.753906 868.433594 C 295.816406 856.386719 311.828125 828.566406 315.738281 790.121094 C 319.644531 751.675781 303.898438 690.871094 296.621094 645.558594 C 295.960938 664.855469 293.539062 699.585938 292.722656 709.097656 C 292.160156 715.714844 281.972656 813.144531 283.402344 836.992188 C 285.769531 876.375 265.414062 940.914062 241.261719 947.605469 C 240.785156 947.738281 243.015625 931.429688 240.875 920.636719 C 239.324219 912.800781 234.710938 884.757812 237.644531 861.785156 C 239.742188 845.347656 258.628906 795.808594 267.488281 778.058594 C 276.296875 760.417969 276.097656 721.253906 278.285156 647.027344 C 280.527344 570.839844 287.113281 550.691406 307.683594 524.007812 C 332.796875 491.429688 462.085938 501.597656 500.058594 514.136719 C 594.300781 545.25 727.882812 537.113281 825.535156 508.257812 C 851.53125 500.578125 896.992188 503.28125 915.714844 505.226562 C 934.441406 507.175781 1003.410156 498.171875 1002.746094 497.953125 C 999.597656 496.910156 991.019531 486.902344 1003.15625 476.441406 C 1015.289062 465.984375 1052.328125 474.746094 1058.125 483.328125 C 1060.105469 482.832031 1065.320312 474.359375 1064.824219 472.875 C 1064.332031 471.390625 1058.550781 472.425781 1055.765625 455.730469 C 1052.238281 434.558594 1070.285156 415.339844 1085.730469 419.078125 C 1089.859375 419.644531 1080.179688 421.9375 1076.320312 432.320312 C 1074.617188 436.898438 1076.558594 447.519531 1079.972656 451.539062 C 1088.210938 446.5 1097.207031 442.792969 1101.296875 441.777344 C 1117.070312 437.871094 1131.984375 438.390625 1137 439.570312 C 1145.339844 441.539062 1153.550781 450.742188 1156.570312 452.046875 C 1160.484375 452.210938 1171.960938 449.085938 1176.621094 446.855469 C 1187.195312 441.796875 1192.667969 435.101562 1194.859375 430.5625 C 1196.898438 422.257812 1194.914062 416.734375 1195.945312 417.402344 C 1207.304688 424.742188 1203.15625 442.960938 1196.734375 452.160156 C 1191.628906 459.476562 1180.660156 468.179688 1175.996094 471.085938 C 1171.332031 473.992188 1169.5625 474.054688 1169.5625 475.539062 C 1171.613281 476.164062 1177.375 486.226562 1181.992188 488.078125 C 1188.0625 487.335938 1187.050781 487.402344 1198.453125 485.636719 C 1209.867188 483.867188 1220.679688 490.476562 1230.082031 495.921875 C 1239.480469 501.363281 1239.859375 508.46875 1238.878906 508.691406 C 1237.898438 508.914062 1227.050781 518.859375 1224.878906 522.199219 C 1222.871094 525.273438 1219.027344 529.988281 1211.835938 531.050781 C 1207.609375 531.671875 1205.421875 532.445312 1205.191406 534.917969 C 1205.007812 536.867188 1211.21875 543.46875 1216.082031 555.277344 C 1221.820312 569.203125 1236.691406 585.554688 1244.777344 597.761719 C 1245.273438 598.089844 1246.816406 599.234375 1249.714844 600.980469 C 1258.207031 606.09375 1262.085938 617.355469 1262.859375 619.601562 L 1262.886719 619.679688 C 1264.125 623.273438 1261.542969 627.058594 1262.394531 629.34375 C 1263.550781 632.453125 1260.699219 649.078125 1237.007812 656.855469 C 1223.152344 665.269531 1214.636719 665.53125 1207.207031 664.539062 Z M 1207.207031 664.539062 " fill-opacity="1" fill-rule="nonzero"/></g><g clip-path="url(#f55c13a7d5)"><path fill="#0c844a" d="M 896.664062 587.371094 L 896.664062 628.597656 L 823.421875 628.597656 L 823.421875 639.46875 C 823.339844 639.480469 823.261719 639.484375 823.175781 639.496094 C 798.082031 642.058594 783.433594 654.648438 776.128906 663.425781 L 776.128906 587.371094 Z M 896.664062 587.371094 " fill-opacity="1" fill-rule="nonzero"/></g><g clip-path="url(#a895e0163f)"><path fill="#0c844a" d="M 898.847656 718.332031 L 898.847656 759.558594 L 776.128906 759.558594 L 776.128906 695.042969 C 787.5625 703.035156 799.636719 706.925781 812.972656 706.925781 C 816.472656 706.917969 819.957031 706.671875 823.421875 706.195312 L 823.421875 718.332031 Z M 898.847656 718.332031 " fill-opacity="1" fill-rule="nonzero"/></g><g clip-path="url(#abcc04325b)"><path fill="#0c844a" d="M 905.011719 686.3125 C 898.632812 685.859375 892.296875 686.167969 885.996094 687.246094 C 880.285156 688.214844 874.65625 689.523438 869.105469 691.167969 C 853.746094 695.59375 838.652344 701.625 823.421875 703.707031 C 807.953125 705.835938 792.332031 703.878906 776.128906 692.015625 C 775.507812 691.558594 774.871094 691.085938 774.242188 690.59375 C 774.242188 690.59375 771.28125 691.738281 766.382812 696.894531 C 758.382812 705.332031 752.160156 723.882812 752.160156 723.882812 C 752.652344 711.800781 755.445312 694.675781 771.28125 682.195312 C 772.828125 680.984375 774.445312 679.871094 776.128906 678.859375 C 788.195312 671.554688 817.097656 660.078125 869.304688 671.59375 C 820.8125 652.964844 793.695312 663.457031 776.128906 673.019531 C 774.320312 674 772.617188 674.972656 771.003906 675.902344 C 772.390625 672.878906 774.101562 670.050781 776.128906 667.417969 C 782.949219 658.257812 797.304688 644.621094 823.421875 641.953125 C 824.949219 641.796875 826.515625 641.679688 828.125 641.597656 C 840.191406 641.015625 852.949219 646.003906 864.527344 652.851562 C 872.101562 657.398438 879.257812 662.53125 885.996094 668.246094 C 892.726562 673.855469 899.066406 679.875 905.011719 686.3125 Z M 905.011719 686.3125 " fill-opacity="1" fill-rule="nonzero"/></g><g transform="matrix(1, 0, 0, 1, 910, 503)"><g clip-path="url(#3197675d28)"><g fill="#0c844a" fill-opacity="1"><g transform="translate(0.864408, 256.548236)"><g><path d="M 79.625 -171.984375 C 97.75 -171.984375 113.585938 -168.390625 127.140625 -161.203125 C 140.703125 -154.023438 151.195312 -143.941406 158.625 -130.953125 C 166.0625 -117.960938 169.78125 -102.976562 169.78125 -86 C 169.78125 -69.175781 166.0625 -54.226562 158.625 -41.15625 C 151.195312 -28.09375 140.664062 -17.96875 127.03125 -10.78125 C 113.394531 -3.59375 97.59375 0 79.625 0 L 15.1875 0 L 15.1875 -171.984375 Z M 76.9375 -36.265625 C 92.769531 -36.265625 105.097656 -40.59375 113.921875 -49.25 C 122.742188 -57.90625 127.15625 -70.15625 127.15625 -86 C 127.15625 -101.84375 122.742188 -114.171875 113.921875 -122.984375 C 105.097656 -131.804688 92.769531 -136.21875 76.9375 -136.21875 L 57.078125 -136.21875 L 57.078125 -36.265625 Z M 76.9375 -36.265625 "/></g></g></g></g></g><g transform="matrix(1, 0, 0, 1, 364, 500)"><g clip-path="url(#ad3a0b1f5a)"><g fill="#0c844a" fill-opacity="1"><g transform="translate(0.552883, 264.62043)"><g><path d="M 133.046875 -120.953125 C 129.859375 -126.828125 125.28125 -131.316406 119.3125 -134.421875 C 113.351562 -137.535156 106.34375 -139.09375 98.28125 -139.09375 C 84.332031 -139.09375 73.15625 -134.515625 64.75 -125.359375 C 56.351562 -116.203125 52.15625 -103.984375 52.15625 -88.703125 C 52.15625 -72.398438 56.566406 -59.671875 65.390625 -50.515625 C 74.210938 -41.367188 86.347656 -36.796875 101.796875 -36.796875 C 112.378906 -36.796875 121.320312 -39.484375 128.625 -44.859375 C 135.9375 -50.234375 141.273438 -57.957031 144.640625 -68.03125 L 89.953125 -68.03125 L 89.953125 -99.78125 L 183.703125 -99.78125 L 183.703125 -59.71875 C 180.503906 -48.96875 175.082031 -38.972656 167.4375 -29.734375 C 159.800781 -20.492188 150.101562 -13.015625 138.34375 -7.296875 C 126.582031 -1.585938 113.3125 1.265625 98.53125 1.265625 C 81.050781 1.265625 65.46875 -2.554688 51.78125 -10.203125 C 38.09375 -17.847656 27.425781 -28.472656 19.78125 -42.078125 C 12.132812 -55.679688 8.3125 -71.222656 8.3125 -88.703125 C 8.3125 -106.171875 12.132812 -121.75 19.78125 -135.4375 C 27.425781 -149.132812 38.050781 -159.800781 51.65625 -167.4375 C 65.257812 -175.082031 80.800781 -178.90625 98.28125 -178.90625 C 119.445312 -178.90625 137.296875 -173.78125 151.828125 -163.53125 C 166.359375 -153.289062 175.972656 -139.097656 180.671875 -120.953125 Z M 133.046875 -120.953125 "/></g></g></g><g fill="#0c844a" fill-opacity="1"><g transform="translate(192.563736, 264.62043)"><g><path d="M 133.046875 -120.953125 C 129.859375 -126.828125 125.28125 -131.316406 119.3125 -134.421875 C 113.351562 -137.535156 106.34375 -139.09375 98.28125 -139.09375 C 84.332031 -139.09375 73.15625 -134.515625 64.75 -125.359375 C 56.351562 -116.203125 52.15625 -103.984375 52.15625 -88.703125 C 52.15625 -72.398438 56.566406 -59.671875 65.390625 -50.515625 C 74.210938 -41.367188 86.347656 -36.796875 101.796875 -36.796875 C 112.378906 -36.796875 121.320312 -39.484375 128.625 -44.859375 C 135.9375 -50.234375 141.273438 -57.957031 144.640625 -68.03125 L 89.953125 -68.03125 L 89.953125 -99.78125 L 183.703125 -99.78125 L 183.703125 -59.71875 C 180.503906 -48.96875 175.082031 -38.972656 167.4375 -29.734375 C 159.800781 -20.492188 150.101562 -13.015625 138.34375 -7.296875 C 126.582031 -1.585938 113.3125 1.265625 98.53125 1.265625 C 81.050781 1.265625 65.46875 -2.554688 51.78125 -10.203125 C 38.09375 -17.847656 27.425781 -28.472656 19.78125 -42.078125 C 12.132812 -55.679688 8.3125 -71.222656 8.3125 -88.703125 C 8.3125 -106.171875 12.132812 -121.75 19.78125 -135.4375 C 27.425781 -149.132812 38.050781 -159.800781 51.65625 -167.4375 C 65.257812 -175.082031 80.800781 -178.90625 98.28125 -178.90625 C 119.445312 -178.90625 137.296875 -173.78125 151.828125 -163.53125 C 166.359375 -153.289062 175.972656 -139.097656 180.671875 -120.953125 Z M 133.046875 -120.953125 "/></g></g></g></g></g></svg>
